<svg id="Capa_1" enable-background="new 0 0 512 512" height="512" viewBox="0 0 512 512" width="512" xmlns="http://www.w3.org/2000/svg"><g><path d="m361 0h-300v219.789l-19.395-19.394-21.21 21.21 55.605 55.606 55.605-55.606-21.21-21.21-19.395 19.394v-189.789h240v30h-120v61h301v-61h-151z"/><path d="m76 482h-31l1 30h315v-99.789l19.395 19.394 21.21-21.21-55.605-55.606-55.605 55.606 21.21 21.21 19.395-19.394v69.789h-225v-30h75v-121h-181v121h76z"/><path d="m211 301h301v-150h-301zm105-120h150v30h-150zm0 60h150v30h-150zm-60-60h30v30h-30zm0 60h30v30h-30z"/></g></svg>